<svg width="1300" height="1300" viewBox="0 0 1300 1300" fill="none" xmlns="http://www.w3.org/2000/svg">
<circle cx="650" cy="650" r="650" fill="#08354C"/>
<path fill-rule="evenodd" clip-rule="evenodd" d="M796.764 439.216H786.961C781.541 439.216 777.157 434.826 777.157 429.412C777.157 423.998 781.541 419.608 786.961 419.608H796.764V409.804C796.764 404.39 801.149 400 806.568 400C811.987 400 816.372 404.39 816.372 409.804V419.608H826.176C831.595 419.608 835.98 423.998 835.98 429.412C835.98 434.826 831.595 439.216 826.176 439.216H816.372V449.02C816.372 454.434 811.987 458.824 806.568 458.824C801.149 458.824 796.764 454.434 796.764 449.02V439.216ZM728.137 493.137C728.137 512.056 712.742 527.451 693.823 527.451C674.904 527.451 659.51 512.056 659.51 493.137C659.51 474.218 674.904 458.824 693.823 458.824C712.742 458.824 728.137 474.218 728.137 493.137ZM708.529 493.137C708.529 485.027 701.934 478.431 693.823 478.431C685.713 478.431 679.117 485.027 679.117 493.137C679.117 501.247 685.713 507.843 693.823 507.843C701.934 507.843 708.529 501.247 708.529 493.137ZM883.412 511.312C881.446 513.278 878.78 514.382 876 514.382C873.219 514.382 870.553 513.278 868.587 511.312C866.621 509.346 865.517 506.68 865.517 503.899C865.517 501.119 866.621 498.453 868.587 496.487C870.553 494.521 873.219 493.417 876 493.417C878.78 493.417 881.446 494.521 883.412 496.487C885.378 498.453 886.483 501.119 886.483 503.899C886.483 506.68 885.378 509.346 883.412 511.312ZM522.255 458.824C522.255 464.238 517.87 468.627 512.451 468.627C507.032 468.627 502.647 464.238 502.647 458.824V439.216C502.647 433.801 507.032 429.412 512.451 429.412C517.87 429.412 522.255 433.801 522.255 439.216V458.824ZM502.647 498.039C502.647 492.625 507.032 488.235 512.451 488.235C517.87 488.235 522.255 492.625 522.255 498.039V517.647C522.255 523.061 517.87 527.451 512.451 527.451C507.032 527.451 502.647 523.061 502.647 517.647V498.039ZM492.843 488.235H473.235C467.816 488.235 463.431 483.846 463.431 478.431C463.431 473.017 467.816 468.627 473.235 468.627H492.843C498.262 468.627 502.647 473.017 502.647 478.431C502.647 483.846 498.262 488.235 492.843 488.235ZM551.667 488.235H532.059C526.64 488.235 522.255 483.846 522.255 478.431C522.255 473.017 526.64 468.627 532.059 468.627H551.667C557.086 468.627 561.47 473.017 561.47 478.431C561.47 483.846 557.086 488.235 551.667 488.235ZM610.489 782.352C610.489 787.767 606.1 792.156 600.685 792.156C595.271 792.156 590.881 787.767 590.881 782.352C590.881 776.938 595.271 772.548 600.685 772.548C606.1 772.548 610.489 776.938 610.489 782.352ZM649.704 792.156C655.119 792.156 659.508 787.767 659.508 782.352C659.508 776.938 655.119 772.548 649.704 772.548C644.29 772.548 639.9 776.938 639.9 782.352C639.9 787.767 644.29 792.156 649.704 792.156ZM708.527 782.352C708.527 787.767 704.138 792.156 698.723 792.156C693.308 792.156 688.919 787.767 688.919 782.352C688.919 776.938 693.308 772.548 698.723 772.548C704.138 772.548 708.527 776.938 708.527 782.352ZM773.816 550.052C755.664 546.044 736.841 550.483 722.211 562.245C707.284 574.243 698.725 592.089 698.725 611.772C698.725 642.123 720.228 667.944 749.841 673.162C788.75 680.015 822.14 690.589 847.475 703.961C804.73 726.645 735.475 743.138 649.706 743.138C563.948 743.138 494.701 726.647 451.953 703.968C477.277 690.593 510.615 680.015 549.571 673.16C579.184 667.941 600.686 642.12 600.686 611.206C600.686 592.086 592.127 574.241 577.201 562.243C562.571 550.491 543.767 546.054 525.596 550.049C437.561 569.464 385 606.826 385 650V787.255C385 850.478 501.27 900 649.706 900C798.142 900 914.412 850.478 914.412 787.255V650C914.412 606.826 861.85 569.464 773.816 550.052ZM753.25 653.848C733.019 650.282 718.333 632.589 718.333 611.206C718.321 604.739 719.768 598.352 722.566 592.521C725.364 586.691 729.442 581.566 734.495 577.53C744.47 569.515 757.242 566.486 769.603 569.201C845.659 585.968 894.804 617.687 894.804 650C894.804 664.309 884.804 678.932 866.492 692.231C838.255 675.221 799.265 661.954 753.25 653.848ZM529.809 569.199C542.189 566.486 554.941 569.515 564.917 577.527C575.189 585.78 581.078 598.054 581.078 611.77C581.078 632.589 566.392 650.282 546.172 653.848C500.105 661.956 461.172 675.226 432.929 692.238C414.613 678.937 404.608 664.312 404.608 650C404.608 617.687 453.752 585.968 529.809 569.199ZM894.804 787.255C894.804 832.236 796.314 880.392 649.706 880.392C503.098 880.392 404.608 832.236 404.608 787.255V761.951C443.728 803.069 537.507 831.373 649.706 831.373C761.904 831.373 855.684 803.069 894.804 761.951V787.255ZM894.804 718.628C894.804 763.608 796.314 811.765 649.706 811.765C503.098 811.765 404.608 763.608 404.608 718.628V693.324C443.728 734.441 537.507 762.745 649.706 762.745C761.904 762.745 855.684 734.441 894.804 693.324V718.628ZM610.489 850.98C610.489 856.395 606.1 860.784 600.685 860.784C595.271 860.784 590.881 856.395 590.881 850.98C590.881 845.566 595.271 841.177 600.685 841.177C606.1 841.177 610.489 845.566 610.489 850.98ZM649.704 860.784C655.119 860.784 659.508 856.395 659.508 850.98C659.508 845.566 655.119 841.177 649.704 841.177C644.29 841.177 639.9 845.566 639.9 850.98C639.9 856.395 644.29 860.784 649.704 860.784ZM708.527 850.98C708.527 856.395 704.138 860.784 698.723 860.784C693.308 860.784 688.919 856.395 688.919 850.98C688.919 845.566 693.308 841.177 698.723 841.177C704.138 841.177 708.527 845.566 708.527 850.98Z" fill="#E6EAED"/>
</svg>
