<svg width="1300" height="1300" viewBox="0 0 1300 1300" fill="none" xmlns="http://www.w3.org/2000/svg">
<circle cx="650" cy="650" r="650" fill="#08354C"/>
<path d="M838.339 806.557C838.264 805.553 837.99 804.511 837.557 803.675L760.479 654.887C770.396 650.655 777.364 640.807 777.364 629.361C777.364 621.279 773.888 613.995 768.355 608.921C773.888 603.846 777.364 596.563 777.364 588.481C777.364 575.794 768.799 565.075 757.149 561.787V532.407C776.423 528.951 791.096 512.061 791.096 491.808C791.096 469.066 772.592 450.563 749.85 450.563C735.136 450.563 721.432 458.491 714.085 471.253C713.129 472.931 712.876 474.918 713.382 476.781C713.888 478.645 715.112 480.231 716.785 481.195C718.458 482.158 720.445 482.419 722.31 481.92C724.175 481.422 725.767 480.205 726.737 478.536C731.487 470.286 740.343 465.161 749.85 465.161C764.544 465.161 776.497 477.115 776.497 491.808C776.497 506.502 764.543 518.455 749.85 518.455C747.914 518.455 746.057 519.224 744.689 520.593C743.32 521.962 742.551 523.819 742.551 525.755V561.658C730.671 564.794 721.885 575.629 721.885 588.48C721.885 596.562 725.361 603.845 730.895 608.92C725.361 613.994 721.885 621.278 721.885 629.36C721.885 640.805 728.854 650.653 738.77 654.886L661.692 803.674C661.483 804.076 661.314 804.497 661.186 804.933C660.495 807.307 661.175 810.268 662.882 812.059L686.233 836.628C687.573 838.003 689.401 838.795 691.321 838.832C693.241 838.869 695.098 838.148 696.49 836.825C697.882 835.502 698.697 833.684 698.758 831.764C698.819 829.845 698.121 827.979 696.815 826.571L681.393 810.344L710.745 800.629L742.325 832.428V874.452L720.259 851.237C719.599 850.542 718.808 849.984 717.932 849.595C717.056 849.206 716.112 848.993 715.154 848.968C714.195 848.944 713.242 849.109 712.347 849.453C711.452 849.797 710.634 850.314 709.939 850.974C709.244 851.635 708.686 852.425 708.297 853.301C707.908 854.177 707.695 855.122 707.671 856.08C707.646 857.038 707.811 857.992 708.155 858.887C708.499 859.781 709.016 860.599 709.677 861.294L744.332 897.756C747.066 900.735 752.186 900.761 754.914 897.756L836.365 812.059C837.059 811.33 837.593 810.464 837.933 809.516C838.273 808.569 838.411 807.561 838.339 806.557ZM816.347 794.469L792.578 786.602L772.908 710.616L816.347 794.469ZM749.624 575.341C756.871 575.341 762.765 581.235 762.765 588.482C762.765 595.728 756.87 601.622 749.624 601.622C742.378 601.622 736.484 595.728 736.484 588.482C736.484 581.235 742.378 575.341 749.624 575.341ZM749.624 616.221C756.871 616.221 762.765 622.116 762.765 629.362C762.765 636.608 756.87 642.504 749.624 642.504C742.378 642.504 736.484 636.609 736.484 629.362C736.484 622.116 742.378 616.221 749.624 616.221ZM706.672 786.602L682.903 794.469L726.343 710.616L706.672 786.602ZM749.624 819.063L720.849 790.088L749.624 678.93L752.09 688.455L778.399 790.088L749.624 819.063ZM756.924 874.455V832.431L788.504 800.631L817.856 810.347L756.924 874.455ZM637.886 761.037C639.644 758.829 639.982 755.63 638.676 753.111L561.598 604.325C571.515 600.092 578.483 590.245 578.483 578.8C578.483 570.718 575.007 563.434 569.474 558.359C575.007 553.285 578.483 546.001 578.483 537.918C578.483 525.23 569.917 514.513 558.268 511.224V481.845C577.542 478.388 592.214 461.499 592.214 441.246C592.214 418.503 573.711 400 550.969 400C536.256 400 522.552 407.928 515.204 420.69C514.726 421.52 514.416 422.437 514.292 423.388C514.168 424.338 514.232 425.304 514.481 426.229C514.731 427.155 515.16 428.022 515.744 428.782C516.329 429.542 517.057 430.179 517.888 430.657C518.718 431.135 519.635 431.445 520.586 431.569C521.536 431.694 522.502 431.629 523.427 431.38C524.353 431.131 525.22 430.702 525.98 430.117C526.74 429.533 527.377 428.804 527.855 427.973C532.605 419.723 541.462 414.598 550.969 414.598C565.662 414.598 577.616 426.551 577.616 441.245C577.616 455.938 565.662 467.892 550.969 467.892C549.033 467.892 547.176 468.661 545.807 470.03C544.439 471.399 543.67 473.255 543.67 475.191V511.095C531.79 514.23 523.003 525.065 523.003 537.917C523.003 545.999 526.479 553.284 532.013 558.358C526.479 563.433 523.003 570.717 523.003 578.799C523.003 590.244 529.971 600.091 539.888 604.324L497.735 685.693C496.855 687.411 496.691 689.407 497.28 691.246C497.868 693.084 499.161 694.614 500.875 695.502C502.588 696.39 504.584 696.563 506.425 695.983C508.266 695.403 509.802 694.117 510.698 692.407L527.461 660.049L507.79 736.037L484.021 743.903L495.332 722.069C495.773 721.218 496.042 720.288 496.123 719.333C496.205 718.378 496.098 717.416 495.808 716.503C495.517 715.589 495.05 714.742 494.433 714.009C493.815 713.276 493.059 712.671 492.208 712.231C491.356 711.79 490.427 711.521 489.472 711.439C488.517 711.357 487.555 711.465 486.641 711.755C485.728 712.045 484.88 712.512 484.147 713.13C483.414 713.748 482.81 714.504 482.369 715.355L462.81 753.11C461.987 754.723 461.783 756.582 462.236 758.335C462.556 759.517 463.162 760.603 464.001 761.496L545.453 847.194C548.227 850.112 553.183 850.197 556.034 847.194L637.486 761.496C637.625 761.35 637.759 761.196 637.886 761.037ZM617.466 743.905L593.697 736.039L580.72 685.908L574.026 660.051L617.466 743.905ZM550.743 524.777C557.99 524.777 563.885 530.672 563.885 537.918C563.885 545.164 557.99 551.06 550.743 551.06C543.497 551.06 537.602 545.165 537.602 537.918C537.602 530.672 543.498 524.777 550.743 524.777ZM537.602 578.799C537.602 571.552 543.497 565.657 550.743 565.657C557.99 565.657 563.885 571.552 563.885 578.799C563.885 586.044 557.99 591.939 550.743 591.939C543.498 591.94 537.602 586.045 537.602 578.799ZM550.743 628.366L579.518 739.524L550.743 768.501L521.968 739.524L550.743 628.366ZM511.864 750.068L543.444 781.868V823.892L482.512 759.782L511.864 750.068ZM558.043 823.892V781.868L589.623 750.068L618.975 759.782L558.043 823.892Z" fill="#E6EAED"/>
</svg>
