<svg width="1300" height="1300" viewBox="0 0 1300 1300" fill="none" xmlns="http://www.w3.org/2000/svg">
<circle cx="650" cy="650" r="650" fill="#08354C"/>
<path fill-rule="evenodd" clip-rule="evenodd" d="M897.139 578.643C895.304 576.818 892.823 575.79 890.235 575.781C873.604 575.781 857.374 573.135 842.032 568.028C842.266 566.416 842.383 564.766 842.383 563.086C842.383 547.316 831.646 534.013 817.099 530.088C817.67 528.117 817.963 526.076 817.969 524.024C817.969 507.869 804.827 494.727 788.672 494.727C778.206 494.727 769.009 500.247 763.827 508.526C746.963 483.58 737.891 454.206 737.891 423.438V409.766C737.891 407.197 736.846 404.678 735.03 402.861C733.213 401.045 730.694 400 728.125 400H571.875C569.307 400 566.787 401.045 564.971 402.861C563.155 404.678 562.11 407.197 562.11 409.766V423.438C562.11 454.206 553.037 483.58 536.174 508.526C530.991 500.247 521.795 494.727 511.328 494.727C495.174 494.727 482.031 507.869 482.031 524.024C482.031 526.114 482.298 528.154 482.783 530.121C468.297 534.087 457.617 547.359 457.617 563.086C457.617 564.766 457.734 566.416 457.969 568.028C442.627 573.135 426.397 575.781 409.766 575.781C407.197 575.781 404.678 576.826 402.861 578.643C401.045 580.459 400 582.979 400 585.547C400 605.069 401.924 624.668 405.723 643.78C409.463 662.598 415.059 681.153 422.354 698.916C423.085 700.713 424.337 702.249 425.948 703.328C427.56 704.407 429.457 704.979 431.397 704.971C432.666 704.971 433.906 704.727 435.098 704.239C440.078 702.198 442.471 696.475 440.42 691.495C427.793 660.733 420.82 628.272 419.688 595.03C435.713 594.121 451.318 591.026 466.289 585.811C469.955 589.923 474.558 593.091 479.708 595.048C478.015 599.159 477.146 603.562 477.149 608.008C477.149 622.867 486.683 635.535 499.951 640.234C497.79 645.16 496.676 650.481 496.68 655.86C496.68 677.399 514.203 694.922 535.742 694.922C540.402 694.922 544.871 694.099 549.018 692.596C562.407 710.181 580.156 720.406 601.95 723.08C606.037 745.902 626.021 763.282 650 763.282C674.003 763.282 694.002 745.868 698.062 723.013C719.686 720.237 737.304 709.992 750.604 692.454C754.971 694.089 759.596 694.925 764.258 694.922C785.797 694.922 803.321 677.399 803.321 655.86C803.325 650.481 802.21 645.16 800.049 640.234C813.318 635.535 822.852 622.867 822.852 608.008C822.852 603.422 821.938 599.047 820.293 595.048C825.443 593.092 830.046 589.923 833.712 585.811C848.682 591.026 864.288 594.121 880.313 595.03C877.051 691.192 823.067 780.508 739.424 828.106L650 878.995L560.576 828.106C531.289 811.436 505.537 789.864 484.014 763.985C483.1 762.879 481.953 761.989 480.654 761.38C479.356 760.77 477.938 760.456 476.504 760.459C474.229 760.459 472.012 761.26 470.264 762.715C469.276 763.533 468.46 764.538 467.863 765.673C467.266 766.807 466.901 768.049 466.787 769.327C466.543 771.924 467.334 774.463 469.004 776.465C480.368 790.139 492.931 802.771 506.543 814.21C520.372 825.818 535.225 836.15 550.918 845.079L645.166 898.721C646.64 899.559 648.305 900 650 900C651.695 900 653.361 899.559 654.834 898.721L749.083 845.079C772.091 831.99 793.257 815.898 812.022 797.227C830.46 778.878 846.436 758.165 859.532 735.655C872.619 713.152 882.707 689.035 889.542 663.916C896.488 638.373 900.005 612.018 900.001 585.547C900.001 582.979 898.956 580.459 897.139 578.643ZM822.52 559.981C822.735 560.977 822.852 562.022 822.852 563.086C822.852 569.531 818.672 575.01 812.881 576.963C811.417 577.461 809.844 577.735 808.204 577.735C801.026 577.735 795.04 572.549 793.79 565.723C793.633 564.873 793.555 563.985 793.555 563.086C793.555 556.475 797.969 550.869 803.995 549.063C805.333 548.653 806.739 548.438 808.204 548.438C815.215 548.438 821.094 553.389 822.52 559.981ZM778.907 524.024C778.907 518.639 783.288 514.258 788.672 514.258C794.057 514.258 798.438 518.639 798.438 524.024C798.438 529.408 794.057 533.789 788.672 533.789C787.013 533.79 785.382 533.365 783.934 532.556C783.831 532.455 783.727 532.354 783.623 532.254L783.623 532.253C783.251 531.892 782.879 531.531 782.51 531.162C781.693 530.344 780.889 529.517 780.092 528.684C779.312 527.254 778.905 525.652 778.907 524.024ZM511.328 514.258C516.713 514.258 521.094 518.639 521.094 524.024C521.094 525.71 520.664 527.297 519.908 528.683C519.111 529.516 518.308 530.344 517.49 531.162C517.152 531.499 516.811 531.83 516.47 532.162L516.468 532.163L516.317 532.31C516.232 532.393 516.146 532.477 516.061 532.56C514.614 533.367 512.985 533.79 511.328 533.789C505.944 533.789 501.563 529.408 501.563 524.024C501.563 518.639 505.944 514.258 511.328 514.258ZM477.481 559.981C478.906 553.389 484.785 548.438 491.797 548.438C493.262 548.438 494.668 548.653 496.006 549.063C502.031 550.869 506.445 556.475 506.445 563.086C506.445 563.985 506.367 564.873 506.211 565.723C504.961 572.549 498.975 577.735 491.797 577.735C490.156 577.735 488.584 577.461 487.119 576.963C481.328 575.01 477.149 569.531 477.149 563.086C477.149 562.022 477.266 560.977 477.481 559.981ZM511.328 593.36C519.405 593.36 525.977 599.931 525.977 608.008C525.977 616.085 519.405 622.657 511.328 622.657C503.251 622.657 496.68 616.085 496.68 608.008C496.68 599.931 503.251 593.36 511.328 593.36ZM516.211 655.86C516.211 645.09 524.973 636.328 535.742 636.328C546.512 636.328 555.274 645.09 555.274 655.86C555.274 666.629 546.512 675.391 535.742 675.391C524.973 675.391 516.211 666.629 516.211 655.86ZM650 743.75C633.846 743.75 620.703 730.608 620.703 714.454C620.703 698.299 633.846 685.157 650 685.157C666.155 685.157 679.297 698.299 679.297 714.454C679.297 730.608 666.155 743.75 650 743.75ZM697.538 703.344C692.494 681.757 673.102 665.625 650 665.625C626.869 665.625 607.457 681.798 602.444 703.426C587.141 701.107 574.837 693.886 565.149 681.53C571.154 674.659 574.805 665.68 574.805 655.86C574.805 637.189 561.634 621.544 544.098 617.706C545.033 614.558 545.508 611.292 545.508 608.008C545.508 593.417 536.315 580.939 523.418 576.044C525.11 571.934 525.979 567.531 525.977 563.086C525.977 559.131 525.303 555.332 524.063 551.797L524.244 551.636C526.068 550.016 533.493 543.421 535.349 540.767C557.068 517.535 571.679 489.18 578.031 458.594H606.055C611.436 458.594 615.821 454.209 615.821 448.828C615.821 443.447 611.436 439.063 606.055 439.063H580.931C581.398 433.894 581.641 419.531 581.641 419.531H718.36C718.36 419.531 718.603 433.894 719.07 439.063H693.946C688.565 439.063 684.18 443.447 684.18 448.828C684.18 454.209 688.565 458.594 693.946 458.594H721.97C728.322 489.179 742.933 517.534 764.652 540.767C766.508 543.421 773.933 550.016 775.756 551.636L775.938 551.797C774.667 555.425 774.02 559.242 774.024 563.086C774.024 567.671 774.938 572.045 776.583 576.044C763.686 580.939 754.493 593.417 754.493 608.008C754.493 611.376 754.991 614.63 755.903 617.706C738.367 621.544 725.196 637.189 725.196 655.86C725.196 665.536 728.741 674.396 734.589 681.226C724.966 693.634 712.743 700.928 697.538 703.344ZM764.258 675.391C753.489 675.391 744.727 666.629 744.727 655.86C744.727 645.09 753.489 636.328 764.258 636.328C775.028 636.328 783.79 645.09 783.79 655.86C783.79 666.629 775.028 675.391 764.258 675.391ZM788.672 622.657C780.595 622.657 774.024 616.085 774.024 608.008C774.024 599.931 780.595 593.36 788.672 593.36C796.75 593.36 803.321 599.931 803.321 608.008C803.321 616.085 796.75 622.657 788.672 622.657ZM459.465 729.395C458.599 727.948 457.37 726.751 455.901 725.922C454.432 725.093 452.773 724.661 451.086 724.668C449.318 724.668 447.58 725.147 446.057 726.065C441.447 728.838 439.953 734.854 442.727 739.463C444.504 742.432 447.639 744.2 451.105 744.2C452.863 744.2 454.602 743.711 456.125 742.803C460.734 740.03 462.228 734.024 459.465 729.415V729.395ZM659.766 448.828C659.766 454.222 655.394 458.594 650 458.594C644.607 458.594 640.235 454.222 640.235 448.828C640.235 443.435 644.607 439.063 650 439.063C655.394 439.063 659.766 443.435 659.766 448.828Z" fill="#E6EAED"/>
</svg>
