<svg width="1300" height="1300" viewBox="0 0 1300 1300" fill="none" xmlns="http://www.w3.org/2000/svg">
<circle cx="650" cy="650" r="650" fill="#08354C"/>
<path fill-rule="evenodd" clip-rule="evenodd" d="M900.316 401.532C905.248 398.523 911.685 400.082 914.695 405.016C917.704 409.948 916.145 416.386 911.213 419.393C868.323 445.558 787.121 463.436 692.763 467.653C689.145 484.08 676.369 497.103 660.076 501.074V549.269C679.967 533.74 704.542 525.153 730.357 525.153C793.447 525.153 844.775 576.48 844.775 639.571C844.775 670.682 834.579 703.793 814.471 737.979C798.709 764.779 776.81 792.364 749.385 819.97C702.984 866.677 657.298 897.004 655.376 898.271C653.628 899.424 651.621 900 649.615 900C647.566 900.001 645.563 899.4 643.853 898.271C641.931 897.003 596.245 866.677 549.844 819.97C522.419 792.364 500.52 764.778 484.758 737.979C464.65 703.793 454.455 670.682 454.455 639.571C454.455 615.526 461.833 592.508 475.794 573.004L475.799 572.999C488.766 554.909 506.534 541.078 527.178 532.999L527.42 532.907L527.469 532.888C540.65 527.76 554.58 525.155 568.87 525.155C594.686 525.155 619.26 533.742 639.151 549.271V501.076C622.858 497.105 610.082 484.082 606.464 467.655C512.108 463.437 430.905 445.559 388.015 419.396C383.082 416.386 381.523 409.949 384.532 405.017C385.247 403.844 386.187 402.823 387.297 402.013C388.407 401.203 389.665 400.62 391 400.297C392.336 399.973 393.721 399.916 395.079 400.128C396.436 400.34 397.739 400.818 398.911 401.533C438.26 425.536 517.392 442.652 606.942 446.73C612.021 427.919 629.329 413.959 649.614 413.959C669.898 413.959 687.206 427.921 692.284 446.73C781.838 442.653 860.965 425.537 900.316 401.532ZM538.663 575.405L526.852 556.045C516.289 561.357 506.831 568.625 498.979 577.465L516.638 591.643C522.852 584.847 530.333 579.331 538.663 575.405ZM556.81 591.042L556.791 591.046C544.587 594.08 534.031 601.581 527.071 612.168C521.708 620.301 518.854 629.832 518.866 639.574C518.866 677.113 545.03 723.445 594.529 773.558C614.425 793.692 634.561 810.683 649.614 822.562C664.664 810.682 684.8 793.692 704.699 773.556C754.197 723.444 780.361 677.115 780.361 639.574C780.361 612 757.928 589.567 730.355 589.567C715.232 589.567 701.067 596.33 691.493 608.12L657.735 649.703C656.754 650.912 655.516 651.887 654.111 652.556C652.706 653.225 651.169 653.573 649.613 653.573C648.056 653.573 646.519 653.225 645.114 652.556C643.709 651.887 642.471 650.912 641.49 649.703L607.731 608.119C598.158 596.33 583.993 589.567 568.871 589.567C564.806 589.563 560.755 590.059 556.81 591.042ZM823.85 639.572C823.85 588.019 781.908 546.077 730.355 546.077C702.066 546.077 675.596 558.699 657.736 580.707L657.712 580.733C657.481 581.016 657.235 581.286 656.976 581.543C656.905 581.614 656.827 581.677 656.754 581.745C656.56 581.925 656.363 582.103 656.156 582.27C656.055 582.351 655.949 582.426 655.845 582.503C655.653 582.646 655.459 582.783 655.257 582.914C655.149 582.983 655.038 583.05 654.926 583.116C654.393 583.435 653.832 583.703 653.248 583.915L653.216 583.928C653.122 583.963 653.028 583.999 652.933 584.031C652.68 584.115 652.421 584.187 652.16 584.253C652.06 584.278 651.96 584.308 651.859 584.33C651.582 584.39 651.301 584.435 651.016 584.473C650.926 584.484 650.837 584.504 650.747 584.513C650.374 584.553 649.997 584.577 649.614 584.577C649.23 584.577 648.853 584.553 648.48 584.513C648.39 584.504 648.3 584.485 648.211 584.473C647.926 584.434 647.644 584.39 647.368 584.33C647.305 584.316 647.243 584.299 647.18 584.283C647.143 584.272 647.105 584.262 647.067 584.253C646.806 584.187 646.548 584.115 646.294 584.031C646.265 584.021 646.235 584.01 646.206 584C646.13 583.972 646.055 583.943 645.979 583.915C645.738 583.827 645.502 583.731 645.271 583.625C644.939 583.472 644.615 583.302 644.301 583.116C644.246 583.083 644.191 583.05 644.135 583.016C644.08 582.983 644.024 582.949 643.97 582.914C643.769 582.784 643.574 582.646 643.383 582.503C643.306 582.447 643.229 582.392 643.154 582.334C643.126 582.313 643.098 582.292 643.071 582.27C642.864 582.104 642.667 581.926 642.473 581.745C642.436 581.71 642.398 581.677 642.359 581.643C642.323 581.61 642.286 581.578 642.251 581.543C641.992 581.286 641.746 581.015 641.515 580.733L641.491 580.707C623.631 558.699 597.163 546.077 568.872 546.077C561.462 546.072 554.077 546.947 546.873 548.684L559.436 569.278C562.553 568.86 565.705 568.642 568.872 568.642C590.325 568.642 610.411 578.223 623.976 594.928L649.614 626.509L675.251 594.929C688.817 578.223 708.903 568.642 730.356 568.642C769.468 568.642 801.286 600.461 801.286 639.572C801.286 682.732 773.035 734.147 719.585 788.259C695.891 812.239 671.923 831.869 655.989 844.116C654.11 845.56 651.863 846.282 649.615 846.282C647.308 846.283 645.067 845.522 643.239 844.116C627.306 831.869 603.337 812.238 579.644 788.261C526.193 734.148 497.942 682.732 497.942 639.572C497.935 629.001 500.304 618.563 504.874 609.03L486.884 594.586C479.329 608.311 475.376 623.664 475.376 639.572C475.376 748.102 618.824 855.12 649.614 876.831C680.4 855.121 823.85 748.101 823.85 639.572ZM649.614 481.414C662.442 481.414 672.88 470.977 672.88 458.148V458.017L672.87 457.735C672.662 445.135 662.229 434.883 649.614 434.883C636.998 434.883 626.565 445.135 626.357 457.735L626.347 458.017V458.148C626.347 470.977 636.785 481.414 649.614 481.414ZM700.114 716.287C703.773 711.815 710.365 711.156 714.835 714.814C719.306 718.473 719.967 725.064 716.308 729.536C708.418 739.18 699.506 749.042 689.819 758.847C683.927 764.803 677.893 770.617 671.723 776.285C669.713 778.133 667.175 779.046 664.644 779.046C663.196 779.048 661.764 778.749 660.438 778.167C659.112 777.585 657.921 776.733 656.943 775.666C653.032 771.412 653.31 764.795 657.561 760.883C663.485 755.442 669.279 749.86 674.937 744.142C684.164 734.8 692.637 725.428 700.114 716.287ZM728.599 685.571C715.136 685.571 715.114 706.494 728.599 706.494C742.062 706.494 742.084 685.571 728.599 685.571Z" fill="#E6EAED"/>
</svg>
