<?xml version="1.0" encoding="utf-8"?>
<!-- Generator: Adobe Illustrator 27.5.0, SVG Export Plug-In . SVG Version: 6.00 Build 0)  -->
<svg version="1.1" id="Layer_1" xmlns="http://www.w3.org/2000/svg" xmlns:xlink="http://www.w3.org/1999/xlink" x="0px" y="0px"
	 viewBox="0 0 1300 1300" style="enable-background:new 0 0 1300 1300;" xml:space="preserve">
<style type="text/css">
	.st0{fill:#08354C;}
	.st1{fill:#E6EAED;}
</style>
<circle class="st0" cx="650" cy="650" r="650"/>
<g>
	<g>
		<path class="st1" d="M533,432.9c-1.9,0-3.7-0.7-5.2-2.1l-13.7-13.7c-2.9-2.9-2.9-7.5,0-10.4c2.9-2.9,7.5-2.9,10.4,0l13.7,13.7
			c2.9,2.9,2.9,7.5,0,10.4C536.8,432.2,534.9,432.9,533,432.9z"/>
	</g>
	<g>
		<path class="st1" d="M766.1,432.9c-1.9,0-3.7-0.7-5.2-2.1c-2.9-2.9-2.9-7.5,0-10.4l13.7-13.7c2.9-2.9,7.5-2.9,10.4,0
			c2.9,2.9,2.9,7.5,0,10.4l-13.7,13.7C769.9,432.2,768,432.9,766.1,432.9z"/>
	</g>
	<g>
		<path class="st1" d="M774.7,506.7c1.4,1.4,3.3,2.1,5.2,2.1c1.9,0,3.7-0.7,5.2-2.1c2.9-2.9,2.9-7.5,0-10.4l-13.7-13.7
			c-2.9-2.9-7.5-2.9-10.4,0c-2.9,2.9-2.9,7.5,0,10.4L774.7,506.7z"/>
		<path class="st1" d="M500.8,464h19.4c4,0,7.3-3.3,7.3-7.3s-3.3-7.3-7.3-7.3h-19.4c-4,0-7.3,3.3-7.3,7.3S496.7,464,500.8,464z"/>
		<path class="st1" d="M779,464h19.4c4,0,7.3-3.3,7.3-7.3s-3.3-7.3-7.3-7.3H779c-4,0-7.3,3.3-7.3,7.3S775,464,779,464z"/>
		<path class="st1" d="M514.1,506.7c1.4,1.4,3.3,2.1,5.2,2.1c1.9,0,3.7-0.7,5.2-2.1l13.7-13.7c2.9-2.9,2.9-7.5,0-10.4
			c-2.9-2.9-7.5-2.9-10.4,0l-13.7,13.7C511.3,499.2,511.3,503.9,514.1,506.7z"/>
		<path class="st1" d="M791.6,606.1c-23.3-29.2-55.3-50.6-90.9-61c0-0.3,0.1-0.7,0.1-1v-11.1c0-2.4-0.6-4.6-1.6-6.7l14.1-16.5
			c2.6-3.1,2.3-7.7-0.8-10.3c-3.1-2.6-7.7-2.3-10.3,0.8l-15,17.5c0,0,0,0-0.1,0c-0.5-0.1-1-0.1-1.5-0.1c-0.1,0-0.1,0-0.2,0h-11.3
			l14.4-54.4h45.1l-9.4,11c-2.6,3.1-2.3,7.7,0.8,10.3c3.1,2.6,7.7,2.3,10.3-0.8l11.2-13.1c3.5-4.1,5.4-9.3,5.4-14.6c0,0,0,0,0,0
			c0-5.1-2-10-5.5-13.7l-32.9-34.6c-4.6-4.9-11.1-7.6-17.8-7.6h-91.7c-6.7,0-13.1,2.8-17.7,7.5c0,0-0.1,0.1-0.1,0.1l-32.9,34.6
			c-3.5,3.7-5.5,8.6-5.5,13.7c0,0,0,0,0,0c0,5.4,1.9,10.6,5.4,14.6l47.5,55.6c-1,2-1.6,4.3-1.6,6.7v11.1c0,0.3,0,0.7,0.1,1
			c-35.6,10.4-67.6,31.8-90.9,61c-25.8,32.4-39.5,71.4-39.5,112.9c0,99.8,81.2,181.1,181.1,181.1c99.8,0,181.1-81.2,181.1-181.1
			C831.1,677.4,817.4,638.4,791.6,606.1z M685.9,544.5C685.9,544.5,685.9,544.5,685.9,544.5c-0.1,0.1-0.2,0.1-0.4,0.1c0,0,0,0,0,0
			h-71c0,0,0,0,0,0c-0.1,0-0.1,0-0.2,0c-0.1,0-0.1-0.1-0.2-0.1c0,0,0,0,0,0c-0.1-0.1-0.2-0.3-0.2-0.4v-11.1c0-0.2,0.1-0.4,0.3-0.5
			c0.1,0,0.2-0.1,0.3-0.1c0,0,0,0,0,0h20.8h29.5h20.8c0,0,0,0,0,0c0.1,0,0.2,0,0.3,0.1c0.2,0.1,0.3,0.3,0.3,0.5v11.1
			C686.1,544.2,686.1,544.4,685.9,544.5C685.9,544.5,685.9,544.5,685.9,544.5z M612.8,517.8l-46.5-54.5h45.1l14.4,54.4h-11.3
			c-0.1,0-0.1,0-0.2,0C613.8,517.7,613.3,517.7,612.8,517.8C612.8,517.8,612.8,517.8,612.8,517.8z M604.2,448.6h-36.7l22.7-23.8
			L604.2,448.6z M709.8,424.8l22.7,23.9h-36.7L709.8,424.8z M630.9,448.6l19.1-28.2l19.1,28.2H630.9z M640.9,517.7l-14.4-54.4h46.9
			l-14.4,54.4H640.9z M698.5,415l-16,27.2l-18.7-27.6h32C696.8,414.6,697.7,414.8,698.5,415z M636.2,414.6l-18.7,27.6l-16-27.2
			c0.9-0.2,1.8-0.4,2.7-0.4H636.2z M650,885.4c-91.8,0-166.4-74.7-166.4-166.4c0-38.1,12.5-74,36.3-103.7
			c22.4-28.1,53.6-48.3,88.1-57.3c0.1,0,0.1,0.1,0.2,0.1c0.3,0.2,0.7,0.3,1.1,0.4c0.1,0.1,0.3,0.1,0.4,0.2c0.4,0.1,0.8,0.2,1.2,0.3
			c0.1,0,0.3,0.1,0.4,0.1c0.4,0.1,0.9,0.2,1.3,0.2c0.1,0,0.2,0,0.3,0c0.5,0.1,1.1,0.1,1.6,0.1h71c0.6,0,1.1,0,1.6-0.1
			c0.1,0,0.3,0,0.4-0.1c0.4-0.1,0.8-0.1,1.2-0.2c0.2,0,0.3-0.1,0.5-0.1c0.4-0.1,0.7-0.2,1-0.3c0.2-0.1,0.4-0.1,0.5-0.2
			c0.3-0.1,0.6-0.2,0.9-0.4c0.1,0,0.2-0.1,0.3-0.1c34.5,9,65.7,29.3,88.1,57.3c23.7,29.7,36.3,65.6,36.3,103.7
			C816.4,810.7,741.8,885.4,650,885.4z"/>
		<path class="st1" d="M786.8,723.7c-4-0.4-7.6,2.6-7.9,6.7c-2.8,32.1-17.5,61.8-41.3,83.8c-23.9,22-55.1,34.2-87.6,34.2
			c-71.3,0-129.4-58-129.4-129.4c0-71.3,58-129.4,129.4-129.4c30.9,0,60.8,11.1,84.2,31.2c23.2,19.9,38.6,47.3,43.5,77.3
			c0.6,4,4.4,6.7,8.4,6.1c4-0.6,6.7-4.4,6.1-8.4c-5.4-33.4-22.6-63.9-48.4-86.1c-26.1-22.4-59.4-34.7-93.8-34.7
			c-79.4,0-144,64.6-144,144c0,79.4,64.6,144,144,144c36.3,0,70.9-13.5,97.5-38.1c26.5-24.4,42.8-57.5,45.9-93.3
			C793.8,727.6,790.9,724.1,786.8,723.7z"/>
	</g>
</g>
</svg>
