<svg width="415" height="166" viewBox="0 0 415 166" fill="none" xmlns="http://www.w3.org/2000/svg">
<path fill-rule="evenodd" clip-rule="evenodd" d="M0.947759 0H8.18151V52.5917C16.181 40.2788 30.0571 32.1184 45.8025 32.1184C70.5188 32.1184 90.6285 52.23 90.6285 76.9464V121.822H83.3967V76.9464C83.3967 56.2171 66.5318 39.3522 45.8025 39.3522C25.0692 39.3522 8.20431 56.2171 8.20431 76.9464V121.822H0.972519V121.82H0.947759V0ZM261.814 32.2709C263.196 28.6599 265.795 25.9992 269.695 24.3897C265.548 22.511 262.929 19.8701 261.814 16.5086C260.597 20.078 257.853 22.6357 253.933 24.3897C257.542 25.7518 260.183 28.3709 261.814 32.2709ZM14.8338 158.434C14.4378 159.398 13.8796 160.246 13.155 160.966C12.4304 161.691 11.5495 162.257 10.5082 162.659C9.46487 163.067 8.30676 163.269 7.0358 163.269H2.28654V147.233H7.0358C8.30676 147.233 9.46487 147.439 10.5082 147.857C11.5495 148.271 12.4304 148.841 13.155 149.563C13.8796 150.286 14.4378 151.139 14.8338 152.125C15.2297 153.109 15.4277 154.162 15.4277 155.279C15.4277 156.417 15.2297 157.47 14.8338 158.434ZM14.8061 148.015C13.8499 147.107 12.7116 146.4 11.3911 145.887C10.0687 145.376 8.61757 145.121 7.0358 145.121H0V165.381H7.0358C8.61757 165.381 10.0687 165.12 11.3911 164.599C12.7116 164.078 13.8499 163.364 14.8061 162.459C15.7603 161.552 16.4987 160.473 17.0193 159.23C17.538 157.985 17.8033 156.651 17.8033 155.221C17.8033 153.794 17.538 152.464 17.0193 151.228C16.4987 149.991 15.7603 148.922 14.8061 148.015ZM29.7837 145.121H32.0682V165.381H29.7837V145.121ZM48.8574 158L53.4899 147.667L58.0907 158H48.8574ZM52.4466 144.976L43.2133 165.381H45.5573L47.9606 160.028H58.9875L61.3611 165.381H63.8219L54.5886 144.976H52.4466ZM77.0777 145.12L84.4579 156.175L91.8382 145.12H94.1525V165.38H91.8659V148.969L84.4837 159.821H84.3689L76.9886 148.998V165.38H74.7614V145.12H77.0777ZM123.633 158.535C123.237 159.547 122.691 160.43 121.996 161.182C121.303 161.934 120.467 162.528 119.493 162.962C118.519 163.395 117.454 163.615 116.294 163.615C115.136 163.615 114.071 163.395 113.097 162.95C112.123 162.504 111.278 161.907 110.567 161.154C109.852 160.402 109.296 159.515 108.9 158.494C108.504 157.47 108.306 156.379 108.306 155.221C108.306 154.063 108.504 152.978 108.9 151.965C109.296 150.953 109.84 150.07 110.535 149.318C111.23 148.563 112.066 147.97 113.04 147.536C114.014 147.1 115.079 146.885 116.237 146.885C117.397 146.885 118.462 147.106 119.436 147.55C120.41 147.993 121.255 148.593 121.968 149.343C122.681 150.098 123.237 150.987 123.633 152.008C124.029 153.03 124.227 154.12 124.227 155.279C124.227 156.437 124.029 157.524 123.633 158.535ZM123.764 147.884C122.855 146.93 121.77 146.172 120.505 145.612C119.242 145.051 117.84 144.772 116.294 144.772C114.75 144.772 113.342 145.055 112.07 145.628C110.795 146.196 109.704 146.962 108.799 147.926C107.892 148.894 107.19 150.007 106.685 151.272C106.184 152.535 105.935 153.871 105.935 155.279C105.935 156.686 106.178 158.024 106.671 159.287C107.164 160.552 107.861 161.661 108.769 162.617C109.676 163.569 110.763 164.328 112.028 164.888C113.289 165.448 114.693 165.729 116.237 165.729C117.781 165.729 119.19 165.444 120.461 164.874C121.736 164.306 122.827 163.538 123.734 162.574C124.639 161.61 125.345 160.493 125.846 159.228C126.349 157.967 126.598 156.629 126.598 155.221C126.598 153.812 126.353 152.477 125.862 151.212C125.369 149.949 124.67 148.841 123.764 147.884ZM140.519 145.119L153.282 161.356V145.119H155.513V165.379H153.686L140.606 148.765V165.379H138.377V145.119H140.519ZM183.021 158.434C182.627 159.398 182.066 160.245 181.344 160.966C180.617 161.691 179.738 162.257 178.695 162.659C177.654 163.066 176.494 163.268 175.223 163.268H170.477V147.233H175.223C176.494 147.233 177.654 147.439 178.695 147.857C179.738 148.27 180.617 148.84 181.344 149.563C182.066 150.286 182.627 151.139 183.021 152.125C183.419 153.109 183.617 154.162 183.617 155.278C183.617 156.417 183.419 157.47 183.021 158.434ZM182.997 148.015C182.037 147.106 180.9 146.4 179.578 145.887C178.256 145.376 176.806 145.121 175.223 145.121H168.189V165.381H175.223C176.806 165.381 178.256 165.119 179.578 164.599C180.9 164.078 182.037 163.363 182.997 162.459C183.949 161.552 184.688 160.473 185.206 159.23C185.725 157.985 185.99 156.65 185.99 155.221C185.99 153.794 185.725 152.463 185.206 151.228C184.688 149.991 183.949 148.922 182.997 148.015ZM204.746 154.132C207.003 154.635 208.664 155.33 209.739 156.221C210.81 157.108 211.344 158.335 211.344 159.899C211.344 160.772 211.174 161.564 210.83 162.279C210.485 162.991 210.012 163.601 209.41 164.104C208.81 164.609 208.084 164.995 207.235 165.264C206.381 165.535 205.457 165.67 204.455 165.67C202.832 165.67 201.353 165.409 200.011 164.886C198.669 164.363 197.392 163.554 196.176 162.457L197.594 160.78C198.653 161.742 199.73 162.463 200.809 162.934C201.889 163.405 203.131 163.645 204.54 163.645C205.912 163.645 207.007 163.326 207.825 162.687C208.648 162.047 209.058 161.208 209.058 160.165C209.058 159.681 208.977 159.252 208.826 158.876C208.668 158.496 208.401 158.157 208.013 157.846C207.625 157.537 207.088 157.258 206.403 157.005C205.716 156.754 204.837 156.512 203.778 156.28C202.616 156.029 201.606 155.742 200.743 155.409C199.884 155.081 199.173 154.687 198.613 154.221C198.053 153.76 197.635 153.216 197.366 152.598C197.095 151.98 196.956 151.246 196.956 150.395C196.956 149.585 197.124 148.839 197.451 148.164C197.78 147.487 198.239 146.905 198.841 146.41C199.437 145.917 200.143 145.531 200.951 145.25C201.763 144.97 202.652 144.83 203.616 144.83C205.099 144.83 206.397 145.034 207.508 145.442C208.618 145.851 209.693 146.467 210.733 147.291L209.404 149.056C208.456 148.284 207.508 147.724 206.554 147.376C205.599 147.029 204.6 146.857 203.556 146.857C202.899 146.857 202.307 146.944 201.779 147.116C201.248 147.291 200.795 147.522 200.415 147.813C200.042 148.102 199.749 148.451 199.548 148.855C199.346 149.262 199.245 149.698 199.245 150.159C199.245 150.646 199.32 151.08 199.476 151.466C199.633 151.852 199.91 152.204 200.314 152.523C200.723 152.844 201.278 153.133 201.994 153.394C202.707 153.653 203.626 153.901 204.746 154.132ZM154.124 114.598H163.38C178.787 113.861 191.248 101.104 191.248 85.5283H191.25V39.4056H154.124C133.413 39.4056 116.562 56.2706 116.562 76.9998C116.562 97.7311 133.413 114.598 154.124 114.598ZM164.542 121.83V121.828C166.068 121.826 167.601 121.746 169.098 121.45C178.132 119.661 185.951 114.55 191.25 107.445V121.82H198.484V86.7376C198.497 86.3361 198.504 85.933 198.504 85.5283H198.484V39.4056H198.503V32.1739H154.124C129.43 32.1739 109.336 52.2835 109.336 76.9998C109.336 101.72 129.43 121.83 154.124 121.83H164.542ZM299.593 77.0454V32.1699H299.629V32.1682H306.86V153.988H299.629V101.382C291.631 113.705 277.75 121.873 261.995 121.873C237.281 121.873 217.169 101.762 217.169 77.0454V32.1699H224.401V77.0454C224.401 97.7747 241.268 114.64 261.995 114.64C282.727 114.64 299.593 97.7747 299.593 77.0454ZM380.76 121.828V121.83H370.343C345.646 121.83 325.555 101.72 325.555 76.9998C325.555 52.2835 345.646 32.1739 370.343 32.1739H414.719V39.4056H414.706V85.5283H414.718C414.718 85.8451 414.714 86.1609 414.706 86.4758V121.82H407.473V107.436C402.173 114.546 394.352 119.66 385.312 121.45C383.816 121.746 382.284 121.825 380.76 121.828ZM379.596 114.598H370.343C349.631 114.598 332.778 97.7311 332.778 76.9998C332.778 56.2706 349.631 39.4056 370.343 39.4056H407.473V85.5283H407.463C407.463 101.104 395.001 113.861 379.596 114.598Z" fill="white"/>
</svg>
